<?xml version="1.0" encoding="utf-8"?>
<svg
	version="1.1"
	xmlns="http://www.w3.org/2000/svg"
	xmlns:xlink="http://www.w3.org/1999/xlink"
	viewBox="0 0 140 140">
	<g>
		<circle cx="70" cy="70" r="54" fill="#414042" />
		<path
			transform="translate(0, -6)"
			d="M109.4,78.2c-2.3-2.5-4-5.6-4.6-9c-0.7-3.5-0.5-6.9,0.6-10.2c-2.2-4.6-5.3-8.6-9.2-11.9c-3.3,0.2-6.8-0.4-10-2
			s-5.8-4-7.7-6.7c-5.1-1-10.2-1.1-15-0.2c-1.9,2.8-4.6,5.1-7.8,6.6s-6.7,2.1-10.1,1.7c-3.8,3.1-7.1,7.1-9.5,11.6
			c0.9,3.2,1.1,6.7,0.4,10.2c-0.9,3.5-2.6,6.5-5,8.9c0.1,5.1,1.1,10.1,3.1,14.6c3.1,1.2,5.9,3.2,8.2,6.2c2.2,2.8,3.5,6.2,4,9.4
			c4,3,8.4,5.3,13.5,6.7c2.9-1.6,6.3-2.6,9.9-2.6s6.9,1,9.9,2.8c4.8-1.1,9.5-3.3,13.6-6.4c0.6-3.3,1.9-6.5,4.2-9.3
			c2.3-2.8,5.2-4.7,8.4-5.9c1-2.2,1.9-4.6,2.5-7.1C109.1,83.4,109.3,80.7,109.4,78.2z" />
		<circle
			fill="#939598"
			cx="70"
			cy="70"
			r="30" />
		 <rect x="68" y="68" width="4" height="50" ry="1" fill="white" />
	</g>
</svg>
